<svg width="40" height="40" fill="none" xmlns="http://www.w3.org/2000/svg"><g clip-path="url(#a)"><path d="M36.462 15.975C36.2 7.122 28.916 0 20 0S3.8 7.122 3.537 15.975L2.353 17.16v8.033l1.176 1.177v5.473a5.81 5.81 0 0 0 5.804 5.804h1.458A3.535 3.535 0 0 0 14.118 40h2.353a3.535 3.535 0 0 0 3.328-2.356l.201.003c5.681 0 10.435-4.048 11.528-9.412h3.077l3.042-3.042V17.16l-1.185-1.185ZM20 2.353c6.983 0 12.797 5.096 13.92 11.765h-2.392C30.435 8.754 25.681 4.706 20 4.706S9.565 8.754 8.472 14.118H6.079C7.203 7.449 13.017 2.353 20 2.353Zm9.114 11.765c-3.803-.012-6.49.22-8.704-3.018l-1.076-1.572-.924 1.666c-1.346 2.426-3.16 2.924-5.469 2.924h-2.055c1.048-4.055 4.737-7.06 9.114-7.06 4.378 0 8.067 3.005 9.114 7.06ZM8.235 25.882H6.37L4.706 24.22v-6.085l1.664-1.663h1.865v9.411Zm-2.353 5.961v-3.608H8.47a11.661 11.661 0 0 0 3.072 5.826 3.52 3.52 0 0 0-.751 1.233H9.333a3.455 3.455 0 0 1-3.45-3.45Zm10.589 5.804h-2.353a1.178 1.178 0 0 1 0-2.353h2.353a1.178 1.178 0 0 1 0 2.353Zm12.94-11.765c0 5.19-4.221 9.412-9.411 9.412a6.87 6.87 0 0 1-.203-.003 3.535 3.535 0 0 0-3.326-2.35c-2.416.005-2.378-.012-2.679.016a9.357 9.357 0 0 1-3.204-7.075v-9.411h2.353c2.082 0 4.618-.344 6.58-2.733 2.59 2.714 5.755 2.733 8.596 2.733h1.295v9.411Zm5.883-1.663-1.664 1.663h-1.865v-9.411h1.865l1.664 1.663v6.085Z" fill="#3A3A3A"/></g><defs><clipPath id="a"><path fill="#fff" d="M0 0h40v40H0z"/></clipPath></defs></svg>